<svg width="62" height="62" viewBox="0 0 62 62" fill="none" xmlns="http://www.w3.org/2000/svg">
<rect x="0.745117" y="0.101562" width="61.2621" height="61.2621" rx="30.631" fill="#EAF7ED"/>
<path d="M34.5957 21.7073C35.9874 22.0808 37.2563 22.8137 38.2752 23.8326C39.2941 24.8515 40.0271 26.1205 40.4006 27.5121" stroke="#09803D" stroke-width="1.64095" stroke-linecap="round" stroke-linejoin="round"/>
<path d="M33.7451 24.8765C34.5821 25.0988 35.3455 25.5384 35.9579 26.1507C36.5702 26.7631 37.0098 27.5265 37.2321 28.3635" stroke="#09803D" stroke-width="1.64095" stroke-linecap="round" stroke-linejoin="round"/>
<path d="M27.7349 30.4045C28.5792 32.148 29.9891 33.5542 31.7348 34.394C31.8635 34.455 32.006 34.4814 32.148 34.4706C32.2901 34.4598 32.4269 34.4122 32.545 34.3325L35.109 32.6197C35.2222 32.5429 35.3531 32.496 35.4894 32.4835C35.6257 32.4709 35.763 32.4931 35.8884 32.548L40.6882 34.6094C40.8522 34.6777 40.9893 34.798 41.0782 34.9518C41.1672 35.1056 41.2031 35.2844 41.1805 35.4606C41.0283 36.648 40.4488 37.7393 39.5502 38.5302C38.6517 39.3212 37.4957 39.7576 36.2986 39.7579C32.5994 39.7579 29.0516 38.2883 26.4359 35.6726C23.8201 33.0568 22.3506 29.5091 22.3506 25.8098C22.3509 24.6127 22.7873 23.4568 23.5782 22.5582C24.3692 21.6597 25.4604 21.0801 26.6478 20.928C26.8241 20.9054 27.0028 20.9413 27.1567 21.0302C27.3105 21.1192 27.4308 21.2562 27.4991 21.4203L29.5605 26.2303C29.6141 26.3537 29.6365 26.4884 29.6258 26.6226C29.6151 26.7567 29.5715 26.8862 29.499 26.9995L27.7862 29.6045C27.71 29.7223 27.6652 29.8577 27.6562 29.9978C27.6473 30.1379 27.6744 30.2779 27.7349 30.4045V30.4045Z" stroke="#09803D" stroke-width="1.64095" stroke-linecap="round" stroke-linejoin="round"/>
</svg>
