<svg width="113" height="112" viewBox="0 0 113 112" fill="none" xmlns="http://www.w3.org/2000/svg">
<g clip-path="url(#clip0_57_470)">
<path d="M38.1989 51.3334C44.3873 51.3334 50.3222 48.8751 54.6981 44.4992C59.0739 40.1234 61.5322 34.1885 61.5322 28.0001C61.5322 21.8117 59.0739 15.8768 54.6981 11.5009C50.3222 7.12507 44.3873 4.66675 38.1989 4.66675C32.0105 4.66675 26.0756 7.12507 21.6997 11.5009C17.3239 15.8768 14.8656 21.8117 14.8656 28.0001C14.8656 34.1885 17.3239 40.1234 21.6997 44.4992C26.0756 48.8751 32.0105 51.3334 38.1989 51.3334ZM38.1989 51.3334C47.5929 51.3334 55.8016 54.8801 61.6396 60.7741C65.1008 64.2833 67.6902 68.5559 69.1996 73.2481M38.1989 51.3334C19.5322 51.3334 5.53223 65.3334 5.53223 84.0001V107.333H52.1989M56.8656 87.8454L76.4189 102.667L108.199 60.6668" stroke="#09803D" stroke-width="9.33333"/>
</g>
<defs>
<clipPath id="clip0_57_470">
<rect width="112" height="112" fill="white" transform="translate(0.865234)"/>
</clipPath>
</defs>
</svg>
