<svg width="109" height="109" viewBox="0 0 109 109" fill="none" xmlns="http://www.w3.org/2000/svg">
<path d="M17.7003 75.3575C9.91088 67.5631 6.01367 63.671 4.56672 58.6142C3.11472 53.5574 4.35497 48.188 6.83547 37.4543L8.26226 31.2631C10.3445 22.2285 11.3881 17.7111 14.4786 14.6156C17.5692 11.52 22.0915 10.4814 31.1262 8.39918L37.3174 6.96735C48.0561 4.49189 53.4205 3.25164 58.4773 4.6986C63.534 6.1506 67.4262 10.0478 75.2156 17.8372L84.4418 27.0634C98.009 40.6255 104.78 47.4015 104.78 55.8211C104.78 64.2457 98.0039 71.0217 84.4469 84.5788C70.8848 98.1408 64.1088 104.917 55.6842 104.917C47.2646 104.917 40.4835 98.1408 26.9265 84.5838L17.7003 75.3575Z" stroke="#09803D" stroke-width="7.5625"/>
<path d="M71.452 71.5913C74.4013 68.6318 74.7996 64.2456 72.3393 61.7802C69.879 59.3148 65.4877 59.7182 62.5333 62.6726C59.5839 65.627 55.1926 66.0253 52.7323 63.565C50.2719 61.1046 50.6702 56.7133 53.6246 53.764M53.6246 53.764L51.8399 51.9792M53.6246 53.764C55.2934 52.0901 57.421 51.2431 59.4024 51.2583M73.2317 73.371L71.4469 71.5863C69.4303 73.608 66.733 74.4348 64.4441 73.9609" stroke="#09803D" stroke-width="7.5625" stroke-linecap="round"/>
<path d="M44.3861 45.8951C48.3239 41.9573 48.3239 35.5729 44.3861 31.6351C40.4483 27.6974 34.0639 27.6974 30.1261 31.6351C26.1883 35.5729 26.1883 41.9573 30.1261 45.8951C34.0639 49.8329 40.4483 49.8329 44.3861 45.8951Z" stroke="#09803D" stroke-width="7.5625"/>
</svg>
