<svg width="106" height="128" viewBox="0 0 106 128" fill="none" xmlns="http://www.w3.org/2000/svg">
<path d="M82.8027 0.125L90.0708 13.8125L105.615 15.7014L94.209 25.9807L96.4902 41.1875L82.8027 32.6328L69.1152 41.1875L71.3965 25.9807L59.9902 15.7014L75.959 13.8125L82.8027 0.125Z" fill="#09803D"/>
<path d="M81.5122 51.4483L72.6701 49.1762C71.0851 55.2819 67.726 60.7808 63.0172 64.9784C58.3084 69.1759 52.4612 71.8836 46.2142 72.7594C39.9672 73.6353 33.6008 72.64 27.9192 69.8992C22.2377 67.1585 17.4959 62.7953 14.293 57.3608C11.09 51.9264 9.56962 45.6646 9.92385 39.3665C10.2781 33.0684 12.4911 27.0165 16.2832 21.9755C20.0753 16.9345 25.2764 13.1305 31.2295 11.0442C37.1826 8.95781 43.6204 8.68266 49.7298 10.2535L52.0065 1.41592C43.1004 -0.900681 33.674 -0.155036 25.2429 3.53297C16.8118 7.22098 9.86584 13.6371 5.52178 21.7497C1.17772 29.8622 -0.312023 39.2 1.29206 48.2615C2.89615 57.3231 7.50086 65.582 14.3659 71.7104V127.875L41.7409 109.625L69.1159 127.875V71.7925C75.1761 66.3922 79.4915 59.31 81.5122 51.4483ZM59.9909 110.825L41.7409 98.6565L23.4909 110.825V77.9153C29.1527 80.7612 35.4008 82.2456 41.7376 82.2504C48.0744 82.2551 54.3248 80.7801 59.9909 77.9427V110.825Z" fill="#09803D"/>
</svg>
