<svg width="88" height="88" viewBox="0 0 88 88" fill="none" xmlns="http://www.w3.org/2000/svg">
<path d="M66.7826 43.9999V66.9173M48.4478 66.9173V57.7499M2.61523 57.7499L15.5864 44.7787M25.5326 21.0825C21.8859 21.0825 18.3885 22.5312 15.8099 25.1098C13.2313 27.6884 11.7826 31.1858 11.7826 34.8325C11.7826 38.4792 13.2313 41.9766 15.8099 44.5552C18.3885 47.1339 21.8859 48.5825 25.5326 48.5825C29.1794 48.5825 32.6767 47.1339 35.2554 44.5552C37.834 41.9766 39.2826 38.4792 39.2826 34.8325C39.2826 31.1858 37.834 27.6884 35.2554 25.1098C32.6767 22.5312 29.1794 21.0825 25.5326 21.0825Z" stroke="#09803D" stroke-width="4.4" stroke-linecap="round" stroke-linejoin="round"/>
<path d="M25.5311 2.75H80.5311C81.7465 2.75 82.9121 3.23281 83.7715 4.09221C84.6309 4.95162 85.1137 6.11722 85.1137 7.3326V80.6674C85.1137 81.8828 84.6309 83.0484 83.7715 83.9078C82.9121 84.7672 81.7465 85.25 80.5311 85.25H25.5311C24.9291 85.2503 24.333 85.132 23.7767 84.9018C23.2205 84.6716 22.715 84.3341 22.2893 83.9086C21.8635 83.483 21.5258 82.9777 21.2953 82.4216C21.0649 81.8655 20.9463 81.2694 20.9463 80.6674V66.9174" stroke="#09803D" stroke-width="4.4" stroke-linecap="round" stroke-linejoin="round"/>
</svg>
